<svg xmlns="http://www.w3.org/2000/svg" viewBox="0 0 1200 760">
<defs><linearGradient id="g" x1="0" y1="0" x2="1" y2="1"><stop stop-color="#f59e0b"/><stop offset="1" stop-color="#ef4444"/></linearGradient></defs>
<rect width="1200" height="760" rx="34" fill="#11100f"/>
<rect x="36" y="36" width="1128" height="688" rx="24" fill="#191615" stroke="#3a302a"/>
<rect x="76" y="76" width="1048" height="500" rx="24" fill="url(#g)"/>
<text x="112" y="132" fill="#fff" font-family="Arial" font-size="24" font-weight="700">FRESH TABLE</text>
<text x="112" y="244" fill="#fff" font-family="Arial" font-size="58" font-weight="700">Good food.<tspan x="112" dy="66">Good mood.</tspan></text>
<text x="112" y="356" fill="#fff" opacity=".86" font-family="Arial" font-size="19">A modern restaurant landing page concept.</text>
<rect x="112" y="392" width="150" height="44" rx="22" fill="#fff"/><text x="146" y="420" fill="#171411" font-family="Arial" font-size="13" font-weight="700">VIEW MENU</text>
<circle cx="900" cy="280" r="150" fill="#201a17" opacity=".65"/><circle cx="900" cy="280" r="108" fill="#f8d7a1"/>
<path d="M830 290 Q900 190 970 290 Q900 390 830 290Z" fill="#8b451f"/><circle cx="875" cy="270" r="8" fill="#f59e0b"/><circle cx="930" cy="300" r="8" fill="#f59e0b"/>
<rect x="76" y="612" width="320" height="48" rx="24" fill="#26201d"/><text x="104" y="642" fill="#fff" font-family="Arial" font-size="15">Reservation • Menu • Location</text>
<rect x="922" y="52" width="172" height="32" rx="16" fill="#ef4444"/><text x="948" y="74" fill="#fff" font-family="Arial" font-size="12" font-weight="700">DEMO CONCEPT</text>
</svg>